HIERARCHY
ROOT Hips
{
	OFFSET -0.001795 -0.223333 0.028219
	CHANNELS 6 Xposition Yposition Zposition Zrotation Yrotation Xrotation 
	JOINT LeftUpLeg
	{
		OFFSET 0.069520 -0.091406 -0.006815
		CHANNELS 3 Zrotation Yrotation Xrotation
		JOINT LeftLeg
		{
			OFFSET 0.034277 -0.375199 -0.004496
			CHANNELS 3 Zrotation Yrotation Xrotation
			JOINT LeftFoot
			{
				OFFSET -0.013596 -0.397961 -0.043693
				CHANNELS 3 Zrotation Yrotation Xrotation
				JOINT LeftToe
				{
					OFFSET 0.026358 -0.055791 0.119288
					CHANNELS 3 Zrotation Yrotation Xrotation
					End Site
					{
						OFFSET 0.000000 0.000000 0.000000
					}
				}
			}
		}
	}
	JOINT RightUpLeg
	{
		OFFSET -0.067670 -0.090522 -0.004320
		CHANNELS 3 Zrotation Yrotation Xrotation
		JOINT RightLeg
		{
			OFFSET -0.038290 -0.382569 -0.008850
			CHANNELS 3 Zrotation Yrotation Xrotation
			JOINT RightFoot
			{
				OFFSET 0.015774 -0.398415 -0.042312
				CHANNELS 3 Zrotation Yrotation Xrotation
				JOINT RightToe
				{
					OFFSET -0.025372 -0.048144 0.123348
					CHANNELS 3 Zrotation Yrotation Xrotation
					End Site
					{
						OFFSET 0.000000 0.000000 0.000000
					}
				}
			}
		}
	}
	JOINT Spine
	{
		OFFSET -0.002533 0.108963 -0.026696
		CHANNELS 3 Zrotation Yrotation Xrotation
		JOINT Spine1
		{
			OFFSET 0.005487 0.135180 0.001092
			CHANNELS 3 Zrotation Yrotation Xrotation
			JOINT Spine2
			{
				OFFSET 0.001457 0.052922 0.025425
				CHANNELS 3 Zrotation Yrotation Xrotation
				JOINT Neck
				{
					OFFSET -0.002778 0.213870 -0.042857
					CHANNELS 3 Zrotation Yrotation Xrotation
					JOINT Head
					{
						OFFSET 0.005152 0.064970 0.051349
						CHANNELS 3 Zrotation Yrotation Xrotation
						End Site
						{
							OFFSET 0.000000 0.000000 0.000000
						}
					}
				}
				JOINT LeftShoulder
				{
					OFFSET 0.078845 0.121749 -0.034090
					CHANNELS 3 Zrotation Yrotation Xrotation
					JOINT LeftArm
					{
						OFFSET 0.090977 0.030469 -0.008868
						CHANNELS 3 Zrotation Yrotation Xrotation
						JOINT LeftForeArm
						{
							OFFSET 0.259612 -0.012772 -0.027456
							CHANNELS 3 Zrotation Yrotation Xrotation
							JOINT LeftHand
							{
								OFFSET 0.249234 0.008986 -0.001171
								CHANNELS 3 Zrotation Yrotation Xrotation
								End Site
								{
									OFFSET 0.000000 0.000000 0.000000
								}
							}
						}
					}
				}
				JOINT RightShoulder
				{
					OFFSET -0.081759 0.118833 -0.038615
					CHANNELS 3 Zrotation Yrotation Xrotation
					JOINT RightArm
					{
						OFFSET -0.096012 0.032551 -0.009143
						CHANNELS 3 Zrotation Yrotation Xrotation
						JOINT RightForeArm
						{
							OFFSET -0.253742 -0.013329 -0.021401
							CHANNELS 3 Zrotation Yrotation Xrotation
							JOINT RightHand
							{
								OFFSET -0.255298 0.007772 -0.005559
								CHANNELS 3 Zrotation Yrotation Xrotation
								End Site
								{
									OFFSET 0.000000 0.000000 0.000000
								}
							}
						}
					}
				}
			}
		}
	}
}
MOTION
Frames: 17
Frame Time: 0.050000
0.000000 0.903777 0.000000 -0.669837 2.726224 4.603943 8.016313 -0.874596 -24.633537 -11.036307 2.827811 29.178810 17.998330 31.076286 17.682619 0.000000 0.000000 0.000000 -8.718066 0.736164 -31.814241 6.790698 -1.818115 32.891921 -4.854338 -15.250532 27.308913 0.000000 0.000000 0.000000 6.307968 -2.967590 26.688006 -4.812775 1.817596 -22.275642 -2.144802 4.024653 25.751631 12.328760 -4.543649 -27.354078 0.000000 0.000000 0.000000 -5.540297 -27.216873 9.998380 -24.741245 -46.449466 3.591694 44.349014 -48.098141 -18.647884 0.000000 0.000000 0.000000 17.584772 13.065900 7.416584 28.428716 43.676158 4.547070 -62.220520 57.006452 -30.091994 0.000000 0.000000 0.000000 
-0.000208 0.900980 -0.000384 -1.083153 1.766865 5.633318 9.275714 -0.604167 -25.833138 -12.283517 3.448747 29.377901 18.684758 31.904151 17.784021 0.000000 0.000000 0.000000 -9.242259 0.747701 -33.790956 8.062568 -2.282633 33.967855 -3.442016 -13.480777 27.076246 0.000000 0.000000 0.000000 5.001660 -2.473551 25.659091 -2.607055 1.242134 -23.118694 -2.314508 6.300134 26.695904 13.276653 -4.710499 -28.075009 0.000000 0.000000 0.000000 -6.435439 -27.265411 9.987588 -22.022953 -48.174517 2.740536 44.213064 -47.488063 -18.552377 0.000000 0.000000 0.000000 18.960194 11.857642 7.440136 24.804603 44.011858 3.350749 -65.632913 57.308389 -32.209200 0.000000 0.000000 0.000000 
-0.000247 0.898813 -0.000255 -1.197083 2.444332 4.855143 9.084913 -0.677854 -25.582047 -11.818574 3.238210 30.353296 18.389196 31.720611 16.914784 0.000000 0.000000 0.000000 -9.035752 0.700924 -33.076926 8.005430 -2.391096 34.685538 -3.978358 -13.977488 25.923704 0.000000 0.000000 0.000000 5.940913 -2.663384 24.917492 -2.748438 1.300253 -22.190839 -3.194364 5.474742 26.709303 13.392741 -5.143173 -26.720066 0.000000 0.000000 0.000000 -6.761155 -27.888293 10.315899 -19.919352 -48.776694 2.181285 43.971775 -44.410423 -17.115776 0.000000 0.000000 0.000000 18.682365 11.942755 7.331012 22.063684 45.149284 2.745466 -65.166200 55.404576 -30.935852 0.000000 0.000000 0.000000 
-0.000341 0.896899 0.000629 -1.517754 2.046324 4.455386 9.285246 -0.611088 -26.171920 -11.909046 3.495263 32.738882 18.582062 32.039104 16.326409 0.000000 0.000000 0.000000 -8.924464 0.783899 -34.282719 8.177588 -2.529638 36.954678 -3.150783 -13.194498 28.381240 0.000000 0.000000 0.000000 6.218215 -2.721153 25.092937 -3.048641 1.370935 -21.813635 -3.737445 5.807798 26.492274 14.073598 -5.274466 -27.788590 0.000000 0.000000 0.000000 -4.879953 -27.934540 9.991500 -18.512732 -49.005248 1.703886 43.815971 -42.508467 -16.366385 0.000000 0.000000 0.000000 17.815635 10.564329 6.443620 21.945072 45.972273 2.939258 -67.573372 54.540702 -31.777006 0.000000 0.000000 0.000000 
-0.000355 0.895302 0.002268 -1.640039 1.865215 3.825338 9.270179 -0.582100 -25.799452 -11.941280 3.613290 33.904009 18.633823 32.285668 15.261357 0.000000 0.000000 0.000000 -8.640843 0.870454 -33.741616 8.226128 -2.529972 37.095183 -3.885097 -14.237450 28.746359 0.000000 0.000000 0.000000 5.950686 -2.665643 25.394535 -3.028520 1.361253 -22.261358 -3.565718 5.750169 27.051386 13.861072 -5.134953 -28.087724 0.000000 0.000000 0.000000 -5.316527 -28.158381 10.150158 -17.080919 -48.370298 1.165140 44.138993 -41.948922 -16.316675 0.000000 0.000000 0.000000 17.350466 10.707042 6.401030 19.631992 45.495447 2.133280 -66.147818 52.420432 -29.779197 0.000000 0.000000 0.000000 
-0.000327 0.895414 0.004018 -1.735576 1.346882 3.790730 9.216792 -0.548763 -25.656431 -12.343193 3.911212 34.459123 19.399607 33.420404 14.498651 0.000000 0.000000 0.000000 -8.319795 1.029542 -34.006527 8.037130 -2.386184 37.716044 -3.761004 -14.154962 28.680848 0.000000 0.000000 0.000000 5.998601 -2.623214 25.200214 -3.233441 1.403673 -22.258510 -3.786611 5.987477 26.865586 14.647859 -5.508325 -28.518962 0.000000 0.000000 0.000000 -5.348385 -28.363551 10.236156 -15.480844 -47.093458 0.576878 43.784029 -41.827623 -16.194939 0.000000 0.000000 0.000000 17.115807 10.819114 6.406761 16.723765 45.068949 1.202411 -64.783902 50.572762 -28.045430 0.000000 0.000000 0.000000 
-0.000236 0.895355 0.005544 -1.628187 1.215162 3.409085 8.995444 -0.573490 -25.396690 -12.528789 4.056709 35.043695 19.829548 33.952134 14.530158 0.000000 0.000000 0.000000 -8.168719 1.071415 -33.548282 7.974205 -2.343105 37.925045 -4.459937 -15.041190 28.044585 0.000000 0.000000 0.000000 5.726566 -2.539483 25.206622 -3.208450 1.393870 -22.820347 -4.060625 5.929092 27.164097 14.954448 -5.718449 -28.611864 0.000000 0.000000 0.000000 -5.230753 -28.247841 10.174528 -14.394646 -45.907084 0.170386 43.676450 -41.289180 -15.990994 0.000000 0.000000 0.000000 17.021602 11.070796 6.501295 13.007201 44.619409 0.032026 -62.268766 47.763854 -25.258705 0.000000 0.000000 0.000000 
-0.000162 0.896107 0.006617 -1.582971 0.810982 3.397641 9.029023 -0.537974 -25.554243 -12.872711 4.330713 35.614938 20.150595 34.231632 15.023480 0.000000 0.000000 0.000000 -7.728584 1.239087 -33.507084 7.459200 -2.035290 38.015105 -4.743474 -15.453643 27.656863 0.000000 0.000000 0.000000 5.665857 -2.459490 24.819121 -3.484932 1.454948 -22.694760 -4.258995 5.930265 26.776612 15.384345 -6.038289 -28.394952 0.000000 0.000000 0.000000 -4.873977 -27.792675 9.963707 -13.275954 -44.268395 -0.197739 43.537146 -41.166292 -15.944708 0.000000 0.000000 0.000000 16.283891 10.930730 6.268521 9.727397 44.017028 -0.908027 -59.580830 45.072127 -22.588523 0.000000 0.000000 0.000000 
-0.000098 0.896321 0.007418 -1.696380 0.320665 3.317096 9.251379 -0.453266 -25.697889 -13.062792 4.561847 36.206550 20.402854 34.368542 15.678029 0.000000 0.000000 0.000000 -7.167939 1.449851 -33.554767 7.118517 -1.796511 38.099850 -5.345562 -16.358773 27.970172 0.000000 0.000000 0.000000 5.607381 -2.419330 24.853864 -3.453772 1.434522 -22.713293 -4.398306 6.054321 26.743973 15.505717 -6.160765 -28.259490 0.000000 0.000000 0.000000 -4.186351 -27.486772 9.745850 -12.599062 -42.542628 -0.430889 43.748836 -40.932447 -16.009784 0.000000 0.000000 0.000000 15.252126 11.000654 6.126688 5.670677 43.400130 -2.020285 -57.703445 42.016005 -20.286333 0.000000 0.000000 0.000000 
-0.000053 0.896070 0.008338 -1.742756 -0.236804 3.323330 9.475062 -0.362265 -25.818892 -13.436300 4.893589 36.746866 20.626772 34.591521 15.833177 0.000000 0.000000 0.000000 -6.772813 1.626511 -33.653955 6.955890 -1.630610 38.248514 -5.891107 -17.154806 27.638478 0.000000 0.000000 0.000000 5.654037 -2.376799 24.638236 -3.732399 1.489734 -22.943240 -4.374985 6.135676 26.908432 15.699906 -6.203281 -28.743163 0.000000 0.000000 0.000000 -3.835185 -26.981744 9.526344 -12.944838 -41.511209 -0.370897 43.665984 -41.581675 -16.246842 0.000000 0.000000 0.000000 14.152581 11.050732 5.958652 2.079778 42.816809 -2.964488 -55.453053 39.758646 -18.373559 0.000000 0.000000 0.000000 
0.000006 0.895544 0.009649 -1.726521 -0.511226 3.018047 9.547930 -0.319851 -25.758864 -13.610647 5.084329 37.322246 20.939010 34.790985 16.514730 0.000000 0.000000 0.000000 -6.706105 1.661235 -33.411147 6.929084 -1.576121 38.465907 -5.902938 -17.203652 27.545021 0.000000 0.000000 0.000000 5.810717 -2.392904 24.657139 -4.252010 1.614456 -23.134959 -4.253710 6.168572 27.037730 15.822017 -6.400224 -28.327703 0.000000 0.000000 0.000000 -3.885642 -26.734635 9.451174 -13.519018 -40.607009 -0.253039 43.610247 -43.464123 -17.015036 0.000000 0.000000 0.000000 12.690481 10.717363 5.574326 -0.577305 42.135174 -3.583006 -53.917519 38.350622 -17.207527 0.000000 0.000000 0.000000 
0.000139 0.895722 0.011351 -1.801487 -0.944420 2.738416 9.673329 -0.252428 -25.712626 -13.877096 5.324215 37.607925 22.130945 35.707014 18.468231 0.000000 0.000000 0.000000 -6.466820 1.758075 -33.149473 6.727915 -1.405608 38.381835 -5.828938 -17.216641 28.342732 0.000000 0.000000 0.000000 6.078862 -2.393770 24.320074 -4.678878 1.715194 -23.019606 -4.292287 6.319238 26.899072 15.921827 -6.491205 -28.229733 0.000000 0.000000 0.000000 -4.164458 -26.633437 9.461184 -15.393808 -39.786445 0.175089 43.596004 -45.257385 -17.728460 0.000000 0.000000 0.000000 11.630886 10.483516 5.300574 -2.934446 41.168901 -4.048045 -53.595330 37.234449 -16.681655 0.000000 0.000000 0.000000 
0.000193 0.896569 0.013227 -1.899961 -1.062265 2.588989 9.696623 -0.234713 -25.419777 -13.778846 5.303475 37.651897 22.181996 35.699078 18.687605 0.000000 0.000000 0.000000 -6.226215 1.814306 -32.786365 6.657904 -1.349707 38.300448 -5.980274 -17.422704 28.165065 0.000000 0.000000 0.000000 6.417948 -2.420655 23.874012 -4.839674 1.744355 -23.505996 -4.409875 6.501063 27.347586 16.378375 -6.721868 -28.436994 0.000000 0.000000 0.000000 -4.687020 -26.309060 9.413818 -17.505158 -39.787796 0.638739 43.885636 -48.488902 -19.207737 0.000000 0.000000 0.000000 10.209439 9.727657 4.788057 -6.296525 40.471362 -4.761026 -54.965426 36.253615 -16.870381 0.000000 0.000000 0.000000 
0.000206 0.898237 0.014989 -2.145335 -1.322579 2.454571 10.240038 -0.095193 -25.261240 -14.065394 5.516825 37.868698 21.903030 35.185777 19.299238 0.000000 0.000000 0.000000 -5.853456 1.918947 -32.455328 6.501922 -1.230028 37.958635 -5.824706 -17.304202 29.020131 0.000000 0.000000 0.000000 6.813722 -2.431745 23.224578 -5.010093 1.779583 -23.482230 -4.677681 6.489908 27.044921 16.408569 -6.729745 -28.456331 0.000000 0.000000 0.000000 -4.398514 -26.065338 9.285842 -20.972842 -40.006631 1.492617 44.675014 -52.453412 -21.243761 0.000000 0.000000 0.000000 8.370734 9.151784 4.277006 -9.638072 39.478093 -5.344492 -56.945994 33.854671 -16.498080 0.000000 0.000000 0.000000 
0.000079 0.900250 0.016464 -2.275170 -1.167507 2.399595 10.336245 -0.088094 -24.978085 -14.165575 5.503726 37.643727 21.929025 35.209101 19.348103 0.000000 0.000000 0.000000 -5.873493 1.876673 -32.089408 6.665441 -1.325873 37.634974 -5.518756 -16.905637 29.403470 0.000000 0.000000 0.000000 7.052843 -2.472944 23.026786 -5.037391 1.781413 -24.020713 -5.165393 6.542145 27.165639 17.045170 -7.052768 -28.567924 0.000000 0.000000 0.000000 -4.356142 -26.468421 9.411604 -24.108691 -40.117245 2.247316 46.339302 -56.638542 -24.056383 0.000000 0.000000 0.000000 6.011467 8.051478 3.553616 -14.026057 38.384065 -6.067340 -59.770469 28.653685 -14.719791 0.000000 0.000000 0.000000 
0.000139 0.902668 0.017664 -2.483823 -0.867627 2.340386 10.451273 -0.086929 -25.055377 -14.000082 5.375932 37.776744 21.850362 34.895724 20.246582 0.000000 0.000000 0.000000 -5.493708 1.901597 -31.407447 6.374221 -1.233323 37.070996 -5.392321 -16.650692 28.831404 0.000000 0.000000 0.000000 7.643481 -2.639636 23.195801 -5.695292 1.928868 -24.499526 -5.602429 6.222329 26.898970 17.301849 -7.074231 -29.032935 0.000000 0.000000 0.000000 -4.346335 -26.631705 9.477517 -27.355238 -40.163781 3.071472 47.227235 -60.745591 -26.484037 0.000000 0.000000 0.000000 2.826204 6.352545 2.538030 -18.402949 36.278311 -6.423941 -61.657459 20.878476 -10.973518 0.000000 0.000000 0.000000 
0.000482 0.905632 0.018691 -2.475224 -0.182431 2.334725 10.005242 -0.234632 -24.911468 -13.548498 5.021320 37.780633 21.193904 34.358504 19.422223 0.000000 0.000000 0.000000 -5.670832 1.762655 -30.896024 6.373509 -1.327782 36.374405 -5.259293 -16.433943 29.827331 0.000000 0.000000 0.000000 8.005690 -2.793377 23.489366 -6.169685 2.019085 -25.504282 -6.241797 6.007043 27.282513 18.075901 -7.432108 -29.367353 0.000000 0.000000 0.000000 -4.610909 -26.776479 9.555829 -30.351386 -39.840039 3.695219 48.102775 -64.639059 -28.983805 0.000000 0.000000 0.000000 -0.237196 4.355883 1.542363 -23.593404 33.843807 -6.636126 -60.453253 11.470195 -5.685016 0.000000 0.000000 0.000000 
